<svg width="1297" height="116" viewBox="0 0 1297 116" fill="none" xmlns="http://www.w3.org/2000/svg">
<path d="M21.2656 114H0.953125V1.96875H21.2656V114ZM146.266 22.2812H101.5V114H81.1875V22.2812H36.3438V1.96875H146.266V22.2812ZM226.969 67.125H153.688V48.8438H226.969V67.125ZM355.484 81.0312C355.484 85.0417 354.964 88.6615 353.922 91.8906C352.932 95.0677 351.604 97.8802 349.938 100.328C348.271 102.776 346.318 104.859 344.078 106.578C341.839 108.297 339.521 109.703 337.125 110.797C334.729 111.891 332.281 112.698 329.781 113.219C327.333 113.74 325.016 114 322.828 114H244.469V93.6875H322.828C326.734 93.6875 329.755 92.5417 331.891 90.25C334.078 87.9583 335.172 84.8854 335.172 81.0312C335.172 79.1562 334.885 77.4375 334.312 75.875C333.74 74.3125 332.906 72.9583 331.812 71.8125C330.771 70.6667 329.469 69.7812 327.906 69.1562C326.396 68.5312 324.703 68.2188 322.828 68.2188H276.109C272.828 68.2188 269.286 67.6458 265.484 66.5C261.682 65.3021 258.141 63.401 254.859 60.7969C251.63 58.1927 248.922 54.7812 246.734 50.5625C244.599 46.3438 243.531 41.1875 243.531 35.0938C243.531 29 244.599 23.8698 246.734 19.7031C248.922 15.4844 251.63 12.0729 254.859 9.46875C258.141 6.8125 261.682 4.91146 265.484 3.76562C269.286 2.56771 272.828 1.96875 276.109 1.96875H345.25V22.2812H276.109C272.255 22.2812 269.234 23.4531 267.047 25.7969C264.911 28.1406 263.844 31.2396 263.844 35.0938C263.844 39 264.911 42.099 267.047 44.3906C269.234 46.6302 272.255 47.75 276.109 47.75H322.828H322.984C325.172 47.8021 327.49 48.1146 329.938 48.6875C332.385 49.2083 334.807 50.0417 337.203 51.1875C339.651 52.3333 341.969 53.7917 344.156 55.5625C346.344 57.2812 348.271 59.3646 349.938 61.8125C351.656 64.2604 353.01 67.0729 354 70.25C354.99 73.4271 355.484 77.0208 355.484 81.0312ZM489.938 68.6875C489.938 75.5104 488.766 81.7865 486.422 87.5156C484.078 93.2448 480.823 98.1927 476.656 102.359C472.49 106.526 467.542 109.781 461.812 112.125C456.135 114.417 449.938 115.562 443.219 115.562H415.719C409 115.562 402.776 114.417 397.047 112.125C391.318 109.781 386.37 106.526 382.203 102.359C378.036 98.1927 374.755 93.2448 372.359 87.5156C370.016 81.7865 368.844 75.5104 368.844 68.6875V47.2812C368.844 40.5104 370.016 34.2604 372.359 28.5312C374.755 22.75 378.036 17.8021 382.203 13.6875C386.37 9.52083 391.318 6.26562 397.047 3.92188C402.776 1.57812 409 0.40625 415.719 0.40625H443.219C449.938 0.40625 456.135 1.57812 461.812 3.92188C467.542 6.26562 472.49 9.52083 476.656 13.6875C480.823 17.8021 484.078 22.75 486.422 28.5312C488.766 34.2604 489.938 40.5104 489.938 47.2812V68.6875ZM469.625 47.2812C469.625 43.2708 468.974 39.651 467.672 36.4219C466.422 33.1406 464.625 30.3542 462.281 28.0625C459.99 25.7188 457.203 23.9219 453.922 22.6719C450.693 21.3698 447.125 20.7188 443.219 20.7188H415.719C411.76 20.7188 408.141 21.3698 404.859 22.6719C401.63 23.9219 398.844 25.7188 396.5 28.0625C394.156 30.3542 392.333 33.1406 391.031 36.4219C389.781 39.651 389.156 43.2708 389.156 47.2812V68.6875C389.156 72.6979 389.781 76.3438 391.031 79.625C392.333 82.8542 394.156 85.6406 396.5 87.9844C398.844 90.276 401.63 92.0729 404.859 93.375C408.141 94.625 411.76 95.25 415.719 95.25H443.062C447.021 95.25 450.615 94.625 453.844 93.375C457.125 92.0729 459.938 90.276 462.281 87.9844C464.625 85.6406 466.422 82.8542 467.672 79.625C468.974 76.3438 469.625 72.6979 469.625 68.6875V47.2812ZM612.906 114H520.25C518.792 114 517.438 113.74 516.188 113.219C514.938 112.698 513.844 111.995 512.906 111.109C512.021 110.172 511.318 109.078 510.797 107.828C510.276 106.578 510.016 105.224 510.016 103.766V1.96875H530.328V93.6875H612.906V114ZM731.656 103.766C731.656 105.224 731.396 106.578 730.875 107.828C730.354 109.078 729.625 110.172 728.688 111.109C727.75 111.995 726.656 112.698 725.406 113.219C724.156 113.74 722.828 114 721.422 114H675.641C671.318 114 666.943 113.531 662.516 112.594C658.089 111.656 653.792 110.224 649.625 108.297C645.51 106.318 641.63 103.818 637.984 100.797C634.339 97.776 631.135 94.2083 628.375 90.0938C625.667 85.9271 623.531 81.1875 621.969 75.875C620.406 70.5104 619.625 64.5469 619.625 57.9844V1.96875H639.938V57.9844C639.938 63.7135 640.719 68.5573 642.281 72.5156C643.896 76.474 645.927 79.7812 648.375 82.4375C650.823 85.0938 653.505 87.1771 656.422 88.6875C659.339 90.1979 662.099 91.3177 664.703 92.0469C667.359 92.776 669.677 93.2448 671.656 93.4531C673.688 93.6094 675.016 93.6875 675.641 93.6875H711.344V1.96875H731.656V103.766ZM856.578 22.2812H811.812V114H791.5V22.2812H746.656V1.96875H856.578V22.2812ZM892.047 114H871.734V1.96875H892.047V114ZM1033.38 68.6875C1033.38 75.5104 1032.2 81.7865 1029.86 87.5156C1027.52 93.2448 1024.26 98.1927 1020.09 102.359C1015.93 106.526 1010.98 109.781 1005.25 112.125C999.573 114.417 993.375 115.562 986.656 115.562H959.156C952.438 115.562 946.214 114.417 940.484 112.125C934.755 109.781 929.807 106.526 925.641 102.359C921.474 98.1927 918.193 93.2448 915.797 87.5156C913.453 81.7865 912.281 75.5104 912.281 68.6875V47.2812C912.281 40.5104 913.453 34.2604 915.797 28.5312C918.193 22.75 921.474 17.8021 925.641 13.6875C929.807 9.52083 934.755 6.26562 940.484 3.92188C946.214 1.57812 952.438 0.40625 959.156 0.40625H986.656C993.375 0.40625 999.573 1.57812 1005.25 3.92188C1010.98 6.26562 1015.93 9.52083 1020.09 13.6875C1024.26 17.8021 1027.52 22.75 1029.86 28.5312C1032.2 34.2604 1033.38 40.5104 1033.38 47.2812V68.6875ZM1013.06 47.2812C1013.06 43.2708 1012.41 39.651 1011.11 36.4219C1009.86 33.1406 1008.06 30.3542 1005.72 28.0625C1003.43 25.7188 1000.64 23.9219 997.359 22.6719C994.13 21.3698 990.562 20.7188 986.656 20.7188H959.156C955.198 20.7188 951.578 21.3698 948.297 22.6719C945.068 23.9219 942.281 25.7188 939.938 28.0625C937.594 30.3542 935.771 33.1406 934.469 36.4219C933.219 39.651 932.594 43.2708 932.594 47.2812V68.6875C932.594 72.6979 933.219 76.3438 934.469 79.625C935.771 82.8542 937.594 85.6406 939.938 87.9844C942.281 90.276 945.068 92.0729 948.297 93.375C951.578 94.625 955.198 95.25 959.156 95.25H986.5C990.458 95.25 994.052 94.625 997.281 93.375C1000.56 92.0729 1003.38 90.276 1005.72 87.9844C1008.06 85.6406 1009.86 82.8542 1011.11 79.625C1012.41 76.3438 1013.06 72.6979 1013.06 68.6875V47.2812ZM1165.41 105.328C1165.41 106.786 1165.12 108.141 1164.55 109.391C1164.03 110.641 1163.3 111.734 1162.36 112.672C1161.47 113.557 1160.41 114.26 1159.16 114.781C1157.91 115.302 1156.58 115.562 1155.17 115.562C1153.92 115.562 1152.65 115.328 1151.34 114.859C1150.09 114.391 1148.97 113.635 1147.98 112.594L1073.77 35.0938V114H1053.45V10.6406C1053.45 8.55729 1054.03 6.68229 1055.17 5.01562C1056.37 3.29688 1057.88 2.02083 1059.7 1.1875C1061.63 0.40625 1063.61 0.223958 1065.64 0.640625C1067.67 1.00521 1069.42 1.94271 1070.88 3.45312L1145.09 80.875V1.96875H1165.41V105.328ZM1296.73 81.0312C1296.73 85.0417 1296.21 88.6615 1295.17 91.8906C1294.18 95.0677 1292.85 97.8802 1291.19 100.328C1289.52 102.776 1287.57 104.859 1285.33 106.578C1283.09 108.297 1280.77 109.703 1278.38 110.797C1275.98 111.891 1273.53 112.698 1271.03 113.219C1268.58 113.74 1266.27 114 1264.08 114H1185.72V93.6875H1264.08C1267.98 93.6875 1271.01 92.5417 1273.14 90.25C1275.33 87.9583 1276.42 84.8854 1276.42 81.0312C1276.42 79.1562 1276.14 77.4375 1275.56 75.875C1274.99 74.3125 1274.16 72.9583 1273.06 71.8125C1272.02 70.6667 1270.72 69.7812 1269.16 69.1562C1267.65 68.5312 1265.95 68.2188 1264.08 68.2188H1217.36C1214.08 68.2188 1210.54 67.6458 1206.73 66.5C1202.93 65.3021 1199.39 63.401 1196.11 60.7969C1192.88 58.1927 1190.17 54.7812 1187.98 50.5625C1185.85 46.3438 1184.78 41.1875 1184.78 35.0938C1184.78 29 1185.85 23.8698 1187.98 19.7031C1190.17 15.4844 1192.88 12.0729 1196.11 9.46875C1199.39 6.8125 1202.93 4.91146 1206.73 3.76562C1210.54 2.56771 1214.08 1.96875 1217.36 1.96875H1286.5V22.2812H1217.36C1213.51 22.2812 1210.48 23.4531 1208.3 25.7969C1206.16 28.1406 1205.09 31.2396 1205.09 35.0938C1205.09 39 1206.16 42.099 1208.3 44.3906C1210.48 46.6302 1213.51 47.75 1217.36 47.75H1264.08H1264.23C1266.42 47.8021 1268.74 48.1146 1271.19 48.6875C1273.64 49.2083 1276.06 50.0417 1278.45 51.1875C1280.9 52.3333 1283.22 53.7917 1285.41 55.5625C1287.59 57.2812 1289.52 59.3646 1291.19 61.8125C1292.91 64.2604 1294.26 67.0729 1295.25 70.25C1296.24 73.4271 1296.73 77.0208 1296.73 81.0312Z" fill="#0D0D0D"/>
</svg>
